<svg width="26" height="28" viewBox="0 0 26 28" fill="none" xmlns="http://www.w3.org/2000/svg">
<path d="M1.29 11.3973C-0.430001 12.6873 -0.430001 15.2695 1.29 16.5595L14.1943 26.2259C16.3207 27.8169 19.3543 26.3011 19.3543 23.6459L19.3543 4.30664C19.3543 1.64924 16.3185 0.133494 14.1943 1.72664L1.29 11.3973ZM23.65 26.8752C23.65 27.1603 23.7633 27.4337 23.9649 27.6353C24.1665 27.8369 24.4399 27.9502 24.725 27.9502C25.0101 27.9502 25.2835 27.8369 25.4851 27.6353C25.6867 27.4337 25.8 27.1603 25.8 26.8752L25.8 1.07519C25.8 0.790085 25.6867 0.516654 25.4851 0.315053C25.2835 0.113451 25.0101 0.000193456 24.725 0.000193469C24.4399 0.000193481 24.1665 0.113451 23.9649 0.315053C23.7633 0.516655 23.65 0.790085 23.65 1.07519L23.65 26.8752Z" fill="black"/>
</svg>
